<?xml version="1.0" encoding="utf-8"?>
<!-- Generator: Adobe Illustrator 21.0.1, SVG Export Plug-In . SVG Version: 6.00 Build 0)  -->
<svg version="1.1" id="Artwork" xmlns="http://www.w3.org/2000/svg" xmlns:xlink="http://www.w3.org/1999/xlink" x="0px" y="0px"
	 viewBox="80 0 1024.3 279" style="enable-background:new 0 0 1184.3 279;" xml:space="preserve" role="img" aria-label="[title + description]">
<title>[title]</title>
<desc>[long description]</desc>
<style type="text/css">
	.st0{fill:none;}
	.st1{fill:white;}
</style>
<path id="Exclusion_Zone" class="st0" d="M557.9,0h68.5v15.8H576v23.7h43.6v15.8H576v36.9h-18.1V0z M0,173.7v-68.5h15.8v50.4h23.7
	V112h15.8v43.6h36.9v18.1H0z M1184.3,105.2v68.5h-15.8v-50.4h-23.7V167H1129v-43.6h-36.9v-18.1H1184.3z M626.4,279h-68.5v-15.8h50.4
	v-23.7h-43.6v-15.8h43.6v-36.9h18.1V279z"/>
<path id="Logo" class="st1" d="M355.6,185.6h-18.1V93.4h43.6c16.1,0,28.9,10.5,28.9,25c0,10.4-6,19-14.8,22.6
	c7,0.8,9.1,3.9,11.3,10.8l10.9,33.7h-19.5l-8.7-27.2c-1.6-5.1-3.9-7.6-8.6-7.6h-25V185.6z M375.8,135.1c10.7,0,16.1-4.7,16.1-13.3
	c0-8.6-5.4-12.6-16.1-12.6h-20.1v25.9H375.8z M441.1,93.4h18.1v76.3h41.3v15.8h-59.4V93.4z M629.1,93.4h68.5v15.8h-50.4v23.7h43.6
	v15.8h-43.6v36.9h-18.1V93.4z M835.6,185.6h-18.1V93.4h43.6c16.1,0,28.9,10.5,28.9,25c0,10.4-6,19-14.8,22.6
	c7,0.8,9.1,3.9,11.3,10.8l10.9,33.7h-19.5l-8.7-27.2c-1.6-5.1-3.9-7.6-8.6-7.6h-25V185.6z M855.8,135.1c10.7,0,16.1-4.7,16.1-13.3
	c0-8.6-5.4-12.6-16.1-12.6h-20.1v25.9H855.8z M954.4,107.9H953c-10.1,0-16.1,5.3-16.1,11.2c0,6.1,3.4,8.8,11.4,10.4l14.1,2.8
	c16.1,3.2,26.1,11.3,26.1,26.3c0,15.8-12.9,28.3-36.1,28.3c-25.8,0-37.6-13.2-38.3-32.2h18.1c0.7,9.2,7.4,16.5,21.5,16.5h1.3
	c10.1,0,15.3-5.3,15.3-11.2c0-5.3-2.3-8.4-10.6-10.1l-16.8-3.4c-16.8-3.4-24.2-12.9-24.2-26.6c0-13.8,12.5-27.6,35.6-27.6
	c22.8,0,35.6,12.8,35.6,30.3h-18.1C971.2,112.8,964.1,107.9,954.4,107.9z M1041.4,109.2h-32.5V93.4h83.3v15.8h-32.6v76.3h-18.1
	V109.2z M790.6,109.2V93.4h-67.8v15.8h24.8v60.5h-24.8v15.8h67.8v-15.8h-24.8v-60.5H790.6z M178.7,166.2l8.9-72.8h18.2L192,185.6
	h-23.6L149,121.1l-18.8,64.4h-24.3L92.1,93.4h18.2l8.9,72.7l22.1-72.7h15.4L178.7,166.2z M268.1,109.2c16.5,0,29.7,13.6,29.7,30.3
	s-13.3,30.3-29.7,30.3s-29.7-13.6-29.7-30.3S251.6,109.2,268.1,109.2 M268.1,92.1c-26,0-47,21.2-47,47.4s21,47.4,47,47.4
	s47-21.2,47-47.4S294.1,92.1,268.1,92.1L268.1,92.1z M559.7,93.4H543l-2.6,0h-16.8v92.1H543h1.3h15.4c25.2,0,45.7-20.7,45.7-46.1
	C605.5,114.2,584.8,93.6,559.7,93.4z M559.7,169.8h-18v-60.5h18c17.3,0,28.4,12.8,28.4,30.2C588.2,156.9,577,169.8,559.7,169.8z"/>
</svg>
